# xmcd CD database file
#
# Track frame offsets:
#	150
#	25330
#	49289
#	68370
#	89993
#	107672
#	131910
#	153663
#	183127
#	209580
#	235044
#	267818
#
# Disc length: 3761 seconds
#
# Revision: 0
# Processed by: cddbd v1.5.1PL2 Copyright (c) Steve Scherf et al.
# Submitted via: CDex 1.51
#
DISCID=aa0eaf0c
DTITLE=andrea wolper - the small hours
DYEAR=2006
DGENRE=Jazz
TTITLE0=dancing on the ceiling - richard rodgers, lorenz hart
TTITLE1=you and the night and the music - howard dietz, arthur schwartz
TTITLE2=gray, not blue andrea wolper
TTITLE3=night time was my mother - connie miller, arnold miller
TTITLE4=crazy love - van morrisson
TTITLE5=rendezvous in providence - andrea wolper
TTITLE6=today - randy sparks
TTITLE7=not sleeping in your arms - andrea wolper
TTITLE8=little suzie´s humming - Vince DiCiccio, Cathi Walkup
TTITLE9=Moanin´- bobby timmons, jon hendricks
TTITLE10=small day tomorrow - bob Dorough, fran Landesman
TTITLE11=I like you, you´re so nice - Blossom Dearie, mariah blackwolf
EXTD=YEAR: 2006
EXTT0=
EXTT1=
EXTT2=
EXTT3=
EXTT4=
EXTT5=
EXTT6=
EXTT7=
EXTT8=
EXTT9=
EXTT10=
EXTT11=
PLAYORDER=
